<mxfile host="65bd71144e">
    <diagram id="d1752828504836" name="Page-1">
        <mxGraphModel dx="1709" dy="1747" grid="1" gridSize="10" guides="1" tooltips="1" connect="1" arrows="1" fold="1" page="1" pageScale="1" pageWidth="850" pageHeight="1100" math="0" shadow="0">
            <root>
                <mxCell id="0"/>
                <mxCell id="1" parent="0"/>
                <mxCell id="table_base" style="shape=table;startSize=0;container=1;collapsible=0;childLayout=tableLayout;recursiveResize=0;overflow=visible;strokeColor=#000000;strokeWidth=1;fillColor=none;" parent="1" vertex="1">
                    <mxGeometry x="60" y="50" width="250" height="160" as="geometry"/>
                </mxCell>
                <mxCell id="r0" style="shape=tableRow;horizontal=0;startSize=0;swimlaneHead=0;swimlaneBody=0;fillColor=none;collapsible=0;dropTarget=0;" parent="table_base" vertex="1">
                    <mxGeometry width="250" height="40" as="geometry"/>
                </mxCell>
                <mxCell id="c1" value="&lt;b&gt;BaseModel&lt;/b&gt;" style="html=1;verticalAlign=middle;whiteSpace=wrap;overflow=visible;align=center;strokeColor=none;strokeWidth=0;connectable=0;fillColor=#F8BBD0;" parent="r0" vertex="1">
                    <mxGeometry width="250" height="40" as="geometry"/>
                </mxCell>
                <mxCell id="r2" style="shape=tableRow;horizontal=0;startSize=0;swimlaneHead=0;swimlaneBody=0;fillColor=none;collapsible=0;dropTarget=0;" parent="table_base" vertex="1">
                    <mxGeometry y="40" width="250" height="30" as="geometry"/>
                </mxCell>
                <mxCell id="c3" value="base" style="html=1;verticalAlign=middle;whiteSpace=wrap;overflow=visible;align=left;strokeColor=none;strokeWidth=0;connectable=0;" parent="r2" vertex="1">
                    <mxGeometry width="250" height="30" as="geometry"/>
                </mxCell>
                <mxCell id="r4" style="shape=tableRow;horizontal=0;startSize=0;swimlaneHead=0;swimlaneBody=0;fillColor=none;collapsible=0;dropTarget=0;" parent="table_base" vertex="1">
                    <mxGeometry y="70" width="250" height="30" as="geometry"/>
                </mxCell>
                <mxCell id="c5" value="&lt;b&gt;Requirements&lt;/b&gt;" style="html=1;verticalAlign=middle;whiteSpace=wrap;overflow=visible;align=center;strokeColor=none;strokeWidth=0;connectable=0;fillColor=#DCEDC8;" parent="r4" vertex="1">
                    <mxGeometry width="250" height="30" as="geometry"/>
                </mxCell>
                <mxCell id="r6" style="shape=tableRow;horizontal=0;startSize=0;swimlaneHead=0;swimlaneBody=0;fillColor=none;collapsible=0;dropTarget=0;" parent="table_base" vertex="1">
                    <mxGeometry y="100" width="250" height="20" as="geometry"/>
                </mxCell>
                <mxCell id="c7" value="&lt;b&gt;Requirement R0&lt;/b&gt;" style="html=1;verticalAlign=middle;whiteSpace=wrap;overflow=visible;align=center;strokeColor=none;strokeWidth=0;connectable=0;fillColor=#BBDEFB;" parent="r6" vertex="1">
                    <mxGeometry width="250" height="20" as="geometry"/>
                </mxCell>
                <mxCell id="r8" style="shape=tableRow;horizontal=0;startSize=0;swimlaneHead=0;swimlaneBody=0;fillColor=none;collapsible=0;dropTarget=0;" parent="table_base" vertex="1">
                    <mxGeometry y="120" width="250" height="40" as="geometry"/>
                </mxCell>
                <mxCell id="c9" value="base.sharedValue &gt;= 0" style="html=1;verticalAlign=middle;whiteSpace=wrap;overflow=visible;align=left;strokeColor=none;strokeWidth=0;connectable=0;" parent="r8" vertex="1">
                    <mxGeometry width="250" height="40" as="geometry"/>
                </mxCell>
                <mxCell id="table_alpha" style="shape=table;startSize=0;container=1;collapsible=0;childLayout=tableLayout;recursiveResize=0;overflow=visible;strokeColor=#000000;strokeWidth=1;fillColor=none;" parent="1" vertex="1">
                    <mxGeometry x="-280" y="110" width="250" height="220" as="geometry"/>
                </mxCell>
                <mxCell id="r10" style="shape=tableRow;horizontal=0;startSize=0;swimlaneHead=0;swimlaneBody=0;fillColor=none;collapsible=0;dropTarget=0;" parent="table_alpha" vertex="1">
                    <mxGeometry width="250" height="40" as="geometry"/>
                </mxCell>
                <mxCell id="c11" value="&lt;b&gt;AlphaModel&lt;/b&gt;" style="html=1;verticalAlign=middle;whiteSpace=wrap;overflow=visible;align=center;strokeColor=none;strokeWidth=0;connectable=0;fillColor=#F8BBD0;" parent="r10" vertex="1">
                    <mxGeometry width="250" height="40" as="geometry">
                        <mxRectangle width="250" height="40" as="alternateBounds"/>
                    </mxGeometry>
                </mxCell>
                <mxCell id="r12" style="shape=tableRow;horizontal=0;startSize=0;swimlaneHead=0;swimlaneBody=0;fillColor=none;collapsible=0;dropTarget=0;" parent="table_alpha" vertex="1">
                    <mxGeometry y="40" width="250" height="30" as="geometry"/>
                </mxCell>
                <mxCell id="c13" value="alpha" style="html=1;verticalAlign=middle;whiteSpace=wrap;overflow=visible;align=left;strokeColor=none;strokeWidth=0;connectable=0;" parent="r12" vertex="1">
                    <mxGeometry width="250" height="30" as="geometry">
                        <mxRectangle width="250" height="30" as="alternateBounds"/>
                    </mxGeometry>
                </mxCell>
                <mxCell id="r14" style="shape=tableRow;horizontal=0;startSize=0;swimlaneHead=0;swimlaneBody=0;fillColor=none;collapsible=0;dropTarget=0;" parent="table_alpha" vertex="1">
                    <mxGeometry y="70" width="250" height="30" as="geometry"/>
                </mxCell>
                <mxCell id="c15" value="&lt;b&gt;Requirements&lt;/b&gt;" style="html=1;verticalAlign=middle;whiteSpace=wrap;overflow=visible;align=center;strokeColor=none;strokeWidth=0;connectable=0;fillColor=#DCEDC8;" parent="r14" vertex="1">
                    <mxGeometry width="250" height="30" as="geometry">
                        <mxRectangle width="250" height="30" as="alternateBounds"/>
                    </mxGeometry>
                </mxCell>
                <mxCell id="r16" style="shape=tableRow;horizontal=0;startSize=0;swimlaneHead=0;swimlaneBody=0;fillColor=none;collapsible=0;dropTarget=0;" parent="table_alpha" vertex="1">
                    <mxGeometry y="100" width="250" height="20" as="geometry"/>
                </mxCell>
                <mxCell id="c17" value="&lt;b&gt;Requirement R1&lt;/b&gt;" style="html=1;verticalAlign=middle;whiteSpace=wrap;overflow=visible;align=center;strokeColor=none;strokeWidth=0;connectable=0;fillColor=#BBDEFB;" parent="r16" vertex="1">
                    <mxGeometry width="250" height="20" as="geometry">
                        <mxRectangle width="250" height="20" as="alternateBounds"/>
                    </mxGeometry>
                </mxCell>
                <mxCell id="r18" style="shape=tableRow;horizontal=0;startSize=0;swimlaneHead=0;swimlaneBody=0;fillColor=none;collapsible=0;dropTarget=0;" parent="table_alpha" vertex="1">
                    <mxGeometry y="120" width="250" height="40" as="geometry"/>
                </mxCell>
                <mxCell id="c19" value="alpha.sharedValue &gt;= 0" style="html=1;verticalAlign=middle;whiteSpace=wrap;overflow=visible;align=left;strokeColor=none;strokeWidth=0;connectable=0;" parent="r18" vertex="1">
                    <mxGeometry width="250" height="40" as="geometry">
                        <mxRectangle width="250" height="40" as="alternateBounds"/>
                    </mxGeometry>
                </mxCell>
                <mxCell id="r20" style="shape=tableRow;horizontal=0;startSize=0;swimlaneHead=0;swimlaneBody=0;fillColor=none;collapsible=0;dropTarget=0;" parent="table_alpha" vertex="1">
                    <mxGeometry y="160" width="250" height="20" as="geometry"/>
                </mxCell>
                <mxCell id="c21" value="&lt;b&gt;Requirement R2&lt;/b&gt;" style="html=1;verticalAlign=middle;whiteSpace=wrap;overflow=visible;align=center;strokeColor=none;strokeWidth=0;connectable=0;fillColor=#BBDEFB;" parent="r20" vertex="1">
                    <mxGeometry width="250" height="20" as="geometry">
                        <mxRectangle width="250" height="20" as="alternateBounds"/>
                    </mxGeometry>
                </mxCell>
                <mxCell id="r22" style="shape=tableRow;horizontal=0;startSize=0;swimlaneHead=0;swimlaneBody=0;fillColor=none;collapsible=0;dropTarget=0;" parent="table_alpha" vertex="1">
                    <mxGeometry y="180" width="250" height="40" as="geometry"/>
                </mxCell>
                <mxCell id="c23" value="alpha.alphaOnly    &gt;= 1" style="html=1;verticalAlign=middle;whiteSpace=wrap;overflow=visible;align=left;strokeColor=none;strokeWidth=0;connectable=0;" parent="r22" vertex="1">
                    <mxGeometry width="250" height="40" as="geometry">
                        <mxRectangle width="250" height="40" as="alternateBounds"/>
                    </mxGeometry>
                </mxCell>
                <mxCell id="table_beta" style="shape=table;startSize=0;container=1;collapsible=0;childLayout=tableLayout;recursiveResize=0;overflow=visible;strokeColor=#000000;strokeWidth=1;fillColor=none;" parent="1" vertex="1">
                    <mxGeometry x="660" y="50" width="250" height="220" as="geometry"/>
                </mxCell>
                <mxCell id="r24" style="shape=tableRow;horizontal=0;startSize=0;swimlaneHead=0;swimlaneBody=0;fillColor=none;collapsible=0;dropTarget=0;" parent="table_beta" vertex="1">
                    <mxGeometry width="250" height="40" as="geometry"/>
                </mxCell>
                <mxCell id="c25" value="&lt;b&gt;BetaModel&lt;/b&gt;" style="html=1;verticalAlign=middle;whiteSpace=wrap;overflow=visible;align=center;strokeColor=none;strokeWidth=0;connectable=0;fillColor=#F8BBD0;" parent="r24" vertex="1">
                    <mxGeometry width="250" height="40" as="geometry"/>
                </mxCell>
                <mxCell id="r26" style="shape=tableRow;horizontal=0;startSize=0;swimlaneHead=0;swimlaneBody=0;fillColor=none;collapsible=0;dropTarget=0;" parent="table_beta" vertex="1">
                    <mxGeometry y="40" width="250" height="30" as="geometry"/>
                </mxCell>
                <mxCell id="c27" value="beta" style="html=1;verticalAlign=middle;whiteSpace=wrap;overflow=visible;align=left;strokeColor=none;strokeWidth=0;connectable=0;" parent="r26" vertex="1">
                    <mxGeometry width="250" height="30" as="geometry"/>
                </mxCell>
                <mxCell id="r28" style="shape=tableRow;horizontal=0;startSize=0;swimlaneHead=0;swimlaneBody=0;fillColor=none;collapsible=0;dropTarget=0;" parent="table_beta" vertex="1">
                    <mxGeometry y="70" width="250" height="30" as="geometry"/>
                </mxCell>
                <mxCell id="c29" value="&lt;b&gt;Requirements&lt;/b&gt;" style="html=1;verticalAlign=middle;whiteSpace=wrap;overflow=visible;align=center;strokeColor=none;strokeWidth=0;connectable=0;fillColor=#DCEDC8;" parent="r28" vertex="1">
                    <mxGeometry width="250" height="30" as="geometry"/>
                </mxCell>
                <mxCell id="r30" style="shape=tableRow;horizontal=0;startSize=0;swimlaneHead=0;swimlaneBody=0;fillColor=none;collapsible=0;dropTarget=0;" parent="table_beta" vertex="1">
                    <mxGeometry y="100" width="250" height="20" as="geometry"/>
                </mxCell>
                <mxCell id="c31" value="&lt;b&gt;Requirement R3&lt;/b&gt;" style="html=1;verticalAlign=middle;whiteSpace=wrap;overflow=visible;align=center;strokeColor=none;strokeWidth=0;connectable=0;fillColor=#BBDEFB;" parent="r30" vertex="1">
                    <mxGeometry width="250" height="20" as="geometry"/>
                </mxCell>
                <mxCell id="r32" style="shape=tableRow;horizontal=0;startSize=0;swimlaneHead=0;swimlaneBody=0;fillColor=none;collapsible=0;dropTarget=0;" parent="table_beta" vertex="1">
                    <mxGeometry y="120" width="250" height="40" as="geometry"/>
                </mxCell>
                <mxCell id="c33" value="beta.sharedValue  &lt;= 100" style="html=1;verticalAlign=middle;whiteSpace=wrap;overflow=visible;align=left;strokeColor=none;strokeWidth=0;connectable=0;" parent="r32" vertex="1">
                    <mxGeometry width="250" height="40" as="geometry"/>
                </mxCell>
                <mxCell id="r34" style="shape=tableRow;horizontal=0;startSize=0;swimlaneHead=0;swimlaneBody=0;fillColor=none;collapsible=0;dropTarget=0;" parent="table_beta" vertex="1">
                    <mxGeometry y="160" width="250" height="20" as="geometry"/>
                </mxCell>
                <mxCell id="c35" value="&lt;b&gt;Requirement R4&lt;/b&gt;" style="html=1;verticalAlign=middle;whiteSpace=wrap;overflow=visible;align=center;strokeColor=none;strokeWidth=0;connectable=0;fillColor=#BBDEFB;" parent="r34" vertex="1">
                    <mxGeometry width="250" height="20" as="geometry"/>
                </mxCell>
                <mxCell id="r36" style="shape=tableRow;horizontal=0;startSize=0;swimlaneHead=0;swimlaneBody=0;fillColor=none;collapsible=0;dropTarget=0;" parent="table_beta" vertex="1">
                    <mxGeometry y="180" width="250" height="40" as="geometry"/>
                </mxCell>
                <mxCell id="c37" value="beta.betaOnly      &lt;=  5" style="html=1;verticalAlign=middle;whiteSpace=wrap;overflow=visible;align=left;strokeColor=none;strokeWidth=0;connectable=0;" parent="r36" vertex="1">
                    <mxGeometry width="250" height="40" as="geometry"/>
                </mxCell>
                <mxCell id="table_gamma" style="shape=table;startSize=0;container=1;collapsible=0;childLayout=tableLayout;recursiveResize=0;overflow=visible;strokeColor=#000000;strokeWidth=1;fillColor=none;" parent="1" vertex="1">
                    <mxGeometry x="560" y="370" width="250" height="220" as="geometry"/>
                </mxCell>
                <mxCell id="r38" style="shape=tableRow;horizontal=0;startSize=0;swimlaneHead=0;swimlaneBody=0;fillColor=none;collapsible=0;dropTarget=0;" parent="table_gamma" vertex="1">
                    <mxGeometry width="250" height="40" as="geometry"/>
                </mxCell>
                <mxCell id="c39" value="&lt;b&gt;GammaModel&lt;/b&gt;" style="html=1;verticalAlign=middle;whiteSpace=wrap;overflow=visible;align=center;strokeColor=none;strokeWidth=0;connectable=0;fillColor=#F8BBD0;" parent="r38" vertex="1">
                    <mxGeometry width="250" height="40" as="geometry">
                        <mxRectangle width="250" height="40" as="alternateBounds"/>
                    </mxGeometry>
                </mxCell>
                <mxCell id="r40" style="shape=tableRow;horizontal=0;startSize=0;swimlaneHead=0;swimlaneBody=0;fillColor=none;collapsible=0;dropTarget=0;" parent="table_gamma" vertex="1">
                    <mxGeometry y="40" width="250" height="30" as="geometry"/>
                </mxCell>
                <mxCell id="c41" value="gamma" style="html=1;verticalAlign=middle;whiteSpace=wrap;overflow=visible;align=left;strokeColor=none;strokeWidth=0;connectable=0;" parent="r40" vertex="1">
                    <mxGeometry width="250" height="30" as="geometry">
                        <mxRectangle width="250" height="30" as="alternateBounds"/>
                    </mxGeometry>
                </mxCell>
                <mxCell id="r42" style="shape=tableRow;horizontal=0;startSize=0;swimlaneHead=0;swimlaneBody=0;fillColor=none;collapsible=0;dropTarget=0;" parent="table_gamma" vertex="1">
                    <mxGeometry y="70" width="250" height="30" as="geometry"/>
                </mxCell>
                <mxCell id="c43" value="&lt;b&gt;Requirements&lt;/b&gt;" style="html=1;verticalAlign=middle;whiteSpace=wrap;overflow=visible;align=center;strokeColor=none;strokeWidth=0;connectable=0;fillColor=#DCEDC8;" parent="r42" vertex="1">
                    <mxGeometry width="250" height="30" as="geometry">
                        <mxRectangle width="250" height="30" as="alternateBounds"/>
                    </mxGeometry>
                </mxCell>
                <mxCell id="r44" style="shape=tableRow;horizontal=0;startSize=0;swimlaneHead=0;swimlaneBody=0;fillColor=none;collapsible=0;dropTarget=0;" parent="table_gamma" vertex="1">
                    <mxGeometry y="100" width="250" height="20" as="geometry"/>
                </mxCell>
                <mxCell id="c45" value="&lt;b&gt;Requirement R5&lt;/b&gt;" style="html=1;verticalAlign=middle;whiteSpace=wrap;overflow=visible;align=center;strokeColor=none;strokeWidth=0;connectable=0;fillColor=#BBDEFB;" parent="r44" vertex="1">
                    <mxGeometry width="250" height="20" as="geometry">
                        <mxRectangle width="250" height="20" as="alternateBounds"/>
                    </mxGeometry>
                </mxCell>
                <mxCell id="r46" style="shape=tableRow;horizontal=0;startSize=0;swimlaneHead=0;swimlaneBody=0;fillColor=none;collapsible=0;dropTarget=0;" parent="table_gamma" vertex="1">
                    <mxGeometry y="120" width="250" height="40" as="geometry"/>
                </mxCell>
                <mxCell id="c47" value="gamma.sharedValue &gt;= -10" style="html=1;verticalAlign=middle;whiteSpace=wrap;overflow=visible;align=left;strokeColor=none;strokeWidth=0;connectable=0;" parent="r46" vertex="1">
                    <mxGeometry width="250" height="40" as="geometry">
                        <mxRectangle width="250" height="40" as="alternateBounds"/>
                    </mxGeometry>
                </mxCell>
                <mxCell id="r48" style="shape=tableRow;horizontal=0;startSize=0;swimlaneHead=0;swimlaneBody=0;fillColor=none;collapsible=0;dropTarget=0;" parent="table_gamma" vertex="1">
                    <mxGeometry y="160" width="250" height="20" as="geometry"/>
                </mxCell>
                <mxCell id="c49" value="&lt;b&gt;Requirement R6&lt;/b&gt;" style="html=1;verticalAlign=middle;whiteSpace=wrap;overflow=visible;align=center;strokeColor=none;strokeWidth=0;connectable=0;fillColor=#BBDEFB;" parent="r48" vertex="1">
                    <mxGeometry width="250" height="20" as="geometry">
                        <mxRectangle width="250" height="20" as="alternateBounds"/>
                    </mxGeometry>
                </mxCell>
                <mxCell id="r50" style="shape=tableRow;horizontal=0;startSize=0;swimlaneHead=0;swimlaneBody=0;fillColor=none;collapsible=0;dropTarget=0;" parent="table_gamma" vertex="1">
                    <mxGeometry y="180" width="250" height="40" as="geometry"/>
                </mxCell>
                <mxCell id="c51" value="gamma.gammaOnly     == 2" style="html=1;verticalAlign=middle;whiteSpace=wrap;overflow=visible;align=left;strokeColor=none;strokeWidth=0;connectable=0;" parent="r50" vertex="1">
                    <mxGeometry width="250" height="40" as="geometry">
                        <mxRectangle width="250" height="40" as="alternateBounds"/>
                    </mxGeometry>
                </mxCell>
                <mxCell id="table_delta" style="shape=table;startSize=0;container=1;collapsible=0;childLayout=tableLayout;recursiveResize=0;overflow=visible;strokeColor=#000000;strokeWidth=1;fillColor=none;" parent="1" vertex="1">
                    <mxGeometry x="10" y="-250" width="250" height="220" as="geometry"/>
                </mxCell>
                <mxCell id="r52" style="shape=tableRow;horizontal=0;startSize=0;swimlaneHead=0;swimlaneBody=0;fillColor=none;collapsible=0;dropTarget=0;" parent="table_delta" vertex="1">
                    <mxGeometry width="250" height="40" as="geometry"/>
                </mxCell>
                <mxCell id="c53" value="&lt;b&gt;DeltaModel&lt;/b&gt;" style="html=1;verticalAlign=middle;whiteSpace=wrap;overflow=visible;align=center;strokeColor=none;strokeWidth=0;connectable=0;fillColor=#F8BBD0;" parent="r52" vertex="1">
                    <mxGeometry width="250" height="40" as="geometry">
                        <mxRectangle width="250" height="40" as="alternateBounds"/>
                    </mxGeometry>
                </mxCell>
                <mxCell id="r54" style="shape=tableRow;horizontal=0;startSize=0;swimlaneHead=0;swimlaneBody=0;fillColor=none;collapsible=0;dropTarget=0;" parent="table_delta" vertex="1">
                    <mxGeometry y="40" width="250" height="30" as="geometry"/>
                </mxCell>
                <mxCell id="c55" value="delta" style="html=1;verticalAlign=middle;whiteSpace=wrap;overflow=visible;align=left;strokeColor=none;strokeWidth=0;connectable=0;" parent="r54" vertex="1">
                    <mxGeometry width="250" height="30" as="geometry">
                        <mxRectangle width="250" height="30" as="alternateBounds"/>
                    </mxGeometry>
                </mxCell>
                <mxCell id="r56" style="shape=tableRow;horizontal=0;startSize=0;swimlaneHead=0;swimlaneBody=0;fillColor=none;collapsible=0;dropTarget=0;" parent="table_delta" vertex="1">
                    <mxGeometry y="70" width="250" height="30" as="geometry"/>
                </mxCell>
                <mxCell id="c57" value="&lt;b&gt;Requirements&lt;/b&gt;" style="html=1;verticalAlign=middle;whiteSpace=wrap;overflow=visible;align=center;strokeColor=none;strokeWidth=0;connectable=0;fillColor=#DCEDC8;" parent="r56" vertex="1">
                    <mxGeometry width="250" height="30" as="geometry">
                        <mxRectangle width="250" height="30" as="alternateBounds"/>
                    </mxGeometry>
                </mxCell>
                <mxCell id="r58" style="shape=tableRow;horizontal=0;startSize=0;swimlaneHead=0;swimlaneBody=0;fillColor=none;collapsible=0;dropTarget=0;" parent="table_delta" vertex="1">
                    <mxGeometry y="100" width="250" height="20" as="geometry"/>
                </mxCell>
                <mxCell id="c59" value="&lt;b&gt;Requirement R7&lt;/b&gt;" style="html=1;verticalAlign=middle;whiteSpace=wrap;overflow=visible;align=center;strokeColor=none;strokeWidth=0;connectable=0;fillColor=#BBDEFB;" parent="r58" vertex="1">
                    <mxGeometry width="250" height="20" as="geometry">
                        <mxRectangle width="250" height="20" as="alternateBounds"/>
                    </mxGeometry>
                </mxCell>
                <mxCell id="r60" style="shape=tableRow;horizontal=0;startSize=0;swimlaneHead=0;swimlaneBody=0;fillColor=none;collapsible=0;dropTarget=0;" parent="table_delta" vertex="1">
                    <mxGeometry y="120" width="250" height="40" as="geometry"/>
                </mxCell>
                <mxCell id="c61" value="delta.sharedValue &lt;= 50" style="html=1;verticalAlign=middle;whiteSpace=wrap;overflow=visible;align=left;strokeColor=none;strokeWidth=0;connectable=0;" parent="r60" vertex="1">
                    <mxGeometry width="250" height="40" as="geometry">
                        <mxRectangle width="250" height="40" as="alternateBounds"/>
                    </mxGeometry>
                </mxCell>
                <mxCell id="r62" style="shape=tableRow;horizontal=0;startSize=0;swimlaneHead=0;swimlaneBody=0;fillColor=none;collapsible=0;dropTarget=0;" parent="table_delta" vertex="1">
                    <mxGeometry y="160" width="250" height="20" as="geometry"/>
                </mxCell>
                <mxCell id="c63" value="&lt;b&gt;Requirement R8&lt;/b&gt;" style="html=1;verticalAlign=middle;whiteSpace=wrap;overflow=visible;align=center;strokeColor=none;strokeWidth=0;connectable=0;fillColor=#BBDEFB;" parent="r62" vertex="1">
                    <mxGeometry width="250" height="20" as="geometry">
                        <mxRectangle width="250" height="20" as="alternateBounds"/>
                    </mxGeometry>
                </mxCell>
                <mxCell id="r64" style="shape=tableRow;horizontal=0;startSize=0;swimlaneHead=0;swimlaneBody=0;fillColor=none;collapsible=0;dropTarget=0;" parent="table_delta" vertex="1">
                    <mxGeometry y="180" width="250" height="40" as="geometry"/>
                </mxCell>
                <mxCell id="c65" value="delta.deltaOnly     == 10" style="html=1;verticalAlign=middle;whiteSpace=wrap;overflow=visible;align=left;strokeColor=none;strokeWidth=0;connectable=0;" parent="r64" vertex="1">
                    <mxGeometry width="250" height="40" as="geometry">
                        <mxRectangle width="250" height="40" as="alternateBounds"/>
                    </mxGeometry>
                </mxCell>
                <mxCell id="edge0" style="edgeStyle=orthogonalEdgeStyle;rounded=0;orthogonalLoop=1;jettySize=auto;html=1;endArrow=block;endFill=0;strokeColor=#000000;" parent="1" source="table_alpha" target="table_base" edge="1">
                    <mxGeometry relative="1" as="geometry"/>
                </mxCell>
                <mxCell id="edge1" style="edgeStyle=orthogonalEdgeStyle;rounded=0;orthogonalLoop=1;jettySize=auto;html=1;endArrow=block;endFill=0;strokeColor=#000000;" parent="1" source="table_beta" target="table_base" edge="1">
                    <mxGeometry relative="1" as="geometry"/>
                </mxCell>
                <mxCell id="edge2" style="edgeStyle=orthogonalEdgeStyle;rounded=0;orthogonalLoop=1;jettySize=auto;html=1;endArrow=block;endFill=0;strokeColor=#000000;" parent="1" source="table_gamma" target="table_base" edge="1">
                    <mxGeometry relative="1" as="geometry"/>
                </mxCell>
                <mxCell id="edge3" style="edgeStyle=orthogonalEdgeStyle;rounded=0;orthogonalLoop=1;jettySize=auto;html=1;endArrow=block;endFill=0;strokeColor=#000000;" parent="1" source="table_delta" target="table_base" edge="1">
                    <mxGeometry relative="1" as="geometry"/>
                </mxCell>
            </root>
        </mxGraphModel>
    </diagram>
</mxfile>